<?xml version="1.0" standalone="no"?>
<!DOCTYPE svg PUBLIC "-//W3C//DTD SVG 20010904//EN"
 "http://www.w3.org/TR/2001/REC-SVG-20010904/DTD/svg10.dtd">
<svg version="1.0" xmlns="http://www.w3.org/2000/svg"
 width="725.000000pt" height="725.000000pt" viewBox="0 0 725.000000 725.000000"
 preserveAspectRatio="xMidYMid meet">
<metadata>
Created by potrace 1.14, written by Peter Selinger 2001-2017
</metadata>
<g transform="translate(0.000000,725.000000) scale(0.100000,-0.100000)"
fill="#000000" stroke="none">
<path d="M534 7226 c-58 -27 -106 -80 -123 -135 -7 -27 -11 -189 -11 -527 0
-471 1 -491 21 -534 27 -60 54 -88 114 -116 47 -23 61 -24 253 -24 l202 0 0
-2522 c0 -2770 -4 -2581 60 -2710 98 -197 263 -322 493 -373 66 -15 165 -17
849 -18 873 -2 819 2 995 -84 67 -32 114 -64 166 -113 l72 -67 60 54 c111 102
246 167 406 198 73 14 179 16 809 14 701 -1 728 -1 811 19 47 12 111 32 142
46 187 82 327 247 377 442 20 76 20 122 20 2596 l0 2518 203 0 c182 0 207 2
247 21 60 27 88 54 116 114 l24 50 0 495 0 495 -24 50 c-28 60 -56 87 -116
114 -45 21 -47 21 -3080 21 l-3035 0 -51 -24z m3291 -641 l0 -400 -97 -3 -96
-3 33 35 c62 66 70 111 70 381 0 256 -5 293 -50 359 l-25 37 83 -3 82 -3 0
-400z m-425 0 l0 -395 -24 0 c-13 0 -38 3 -55 6 l-31 7 0 383 0 383 23 4 c12
2 37 5 55 6 l32 1 0 -395z m-190 113 l-1 -253 -63 175 c-35 96 -73 199 -85
229 -12 30 -18 58 -14 62 10 10 110 37 141 38 l22 1 0 -252z m958 184 c3 -45
0 -42 105 -68 l27 -6 0 -258 0 -258 -67 -23 c-38 -12 -74 -24 -80 -27 -10 -3
-13 11 -13 52 0 53 -1 56 -22 51 -44 -10 -153 -25 -180 -25 l-28 0 0 105 0
104 98 3 97 3 0 60 0 60 -97 3 -98 3 0 108 0 109 43 -5 c23 -2 66 -9 96 -14
90 -15 91 -14 91 32 0 55 24 47 28 -9z m-553 -18 c35 -37 40 -75 40 -284 0
-168 -2 -188 -21 -220 -25 -44 -57 -59 -111 -53 l-43 5 0 289 0 289 55 0 c47
0 60 -4 80 -26z m2114 12 c47 -25 51 -48 51 -306 0 -258 -4 -281 -51 -306 -37
-19 -494 -21 -534 -2 -51 23 -55 46 -55 310 1 259 4 278 51 304 36 20 499 20
538 0z m-3680 -10 c47 -25 51 -48 51 -306 0 -258 -4 -281 -51 -306 -37 -19
-494 -21 -534 -2 -51 23 -55 46 -55 310 1 259 4 278 51 304 36 20 499 20 538
0z m891 -281 c0 -177 -4 -285 -10 -285 -5 0 -25 8 -45 17 l-35 17 0 251 0 251
33 17 c60 29 57 42 57 -268z m-1530 -10 l0 -215 -480 0 -480 0 0 215 0 215
480 0 480 0 0 -215z m1251 176 c-90 -114 -84 -244 16 -349 l40 -42 -284 0
-283 0 0 215 0 215 271 0 271 0 -31 -39z m1847 -7 c35 -23 74 -90 79 -138 7
-59 -10 -105 -58 -159 -37 -42 -122 -107 -141 -107 -4 0 -8 101 -8 224 l0 225
53 -15 c28 -9 62 -22 75 -30z m582 -169 l0 -215 -287 0 -287 0 41 43 c105 107
109 252 10 355 l-31 32 277 0 277 0 0 -215z m1700 0 l0 -215 -480 0 -480 0 0
215 0 215 480 0 480 0 0 -215z m-4020 8 l0 -197 -41 39 c-22 22 -49 57 -60 77
-23 45 -25 118 -3 161 14 27 91 117 101 117 2 0 3 -89 3 -197z m354 -128 c75
-212 81 -235 64 -235 -6 0 -47 9 -90 21 l-78 21 1 232 0 231 20 -45 c11 -25
49 -126 83 -225z m-1374 -2778 c0 -2423 -4 -2266 58 -2381 38 -73 145 -177
214 -209 119 -56 127 -57 705 -57 347 0 550 -4 585 -11 84 -17 190 -73 254
-134 32 -30 59 -55 59 -55 0 0 24 22 52 49 29 26 83 64 121 84 124 66 137 67
722 67 571 0 584 1 700 57 72 35 178 141 214 214 59 123 56 -33 56 2377 l0
2212 355 0 355 0 0 -2502 c0 -2781 5 -2573 -69 -2724 -64 -128 -184 -236 -327
-292 -132 -53 -154 -54 -934 -51 -658 2 -732 1 -805 -15 -157 -34 -308 -108
-397 -194 l-37 -35 -38 34 c-116 105 -288 184 -448 205 -33 4 -400 8 -815 9
-842 0 -792 -4 -945 71 -174 85 -306 256 -334 434 -7 44 -11 878 -11 2563 l0
2497 355 0 355 0 0 -2213z m3680 1420 l0 -792 -876 -505 c-482 -278 -886 -509
-898 -514 -19 -7 -163 74 -934 529 l-912 537 0 769 0 769 1810 0 1810 0 0
-793z m-2382 -1534 l552 -326 0 -1139 0 -1139 -33 25 c-18 14 -63 39 -98 55
-120 54 -167 58 -734 66 -288 3 -542 11 -570 17 -173 35 -323 187 -355 357 -6
34 -10 556 -10 1437 l0 1383 348 -206 c191 -112 596 -351 900 -530z m1737
-403 c125 -39 202 -86 300 -185 150 -149 210 -292 210 -500 0 -208 -60 -351
-210 -500 -149 -150 -292 -210 -500 -210 -208 0 -351 60 -500 210 -150 149
-210 292 -210 500 0 208 60 351 210 500 115 116 230 177 383 205 76 14 238 4
317 -20z"/>
<path d="M5293 6766 c-17 -8 -36 -23 -42 -35 -21 -39 -8 -104 26 -124 11 -7 8
-16 -17 -43 -59 -68 -28 -174 57 -190 47 -9 107 10 127 41 31 47 12 153 -30
169 -14 5 -13 10 10 31 34 32 36 92 3 130 -27 32 -88 42 -134 21z m72 -96 c0
-40 -29 -55 -40 -21 -9 30 4 63 23 59 12 -2 17 -14 17 -38z m5 -139 c23 -44 1
-101 -34 -88 -32 13 -25 107 8 107 9 0 20 -9 26 -19z"/>
<path d="M5550 6730 c0 -36 3 -40 25 -40 l25 0 0 -155 0 -155 45 0 45 0 0 195
0 195 -70 0 -70 0 0 -40z"/>
<path d="M1853 6765 c-52 -22 -81 -99 -63 -165 13 -48 54 -83 92 -78 16 3 28
1 28 -4 0 -5 -13 -35 -30 -68 -16 -33 -30 -62 -30 -65 0 -3 21 -5 47 -3 l47 3
40 90 c67 151 60 258 -19 291 -42 17 -71 17 -112 -1z m89 -90 c23 -51 -20
-106 -57 -75 -18 15 -20 71 -3 88 20 20 48 14 60 -13z"/>
<path d="M1520 6730 c0 -36 3 -40 25 -40 l25 0 0 -155 0 -155 45 0 45 0 0 195
0 195 -70 0 -70 0 0 -40z"/>
<path d="M5690 5680 l0 -40 40 0 c29 0 40 4 40 15 0 19 4 19 40 0 28 -15 30
-14 30 4 0 28 -59 61 -109 61 l-41 0 0 -40z"/>
<path d="M5690 5570 l0 -40 40 0 c29 0 40 4 40 15 0 19 4 19 40 0 29 -15 30
-14 30 5 0 29 -56 60 -107 60 l-43 0 0 -40z"/>
<path d="M5772 5363 c-119 -58 -119 -243 -1 -304 59 -30 169 -25 218 10 39 28
70 91 71 141 0 55 -38 121 -85 147 -50 28 -153 31 -203 6z m191 -121 c59 -53
-48 -108 -155 -79 -60 16 -56 78 5 96 42 13 127 3 150 -17z"/>
<path d="M1180 5280 l0 -60 200 0 200 0 0 60 0 60 -200 0 -200 0 0 -60z"/>
<path d="M1180 4915 l0 -44 115 -3 115 -3 -115 -70 -115 -70 0 -52 0 -53 200
0 200 0 0 50 0 49 -101 3 -102 3 102 63 101 63 0 55 0 54 -200 0 -200 0 0 -45z"/>
<path d="M5690 4790 l0 -130 45 0 45 0 0 40 0 40 135 0 135 0 0 50 0 50 -135
0 -135 0 0 40 0 40 -45 0 -45 0 0 -130z"/>
<path d="M5690 4465 l0 -55 180 0 180 0 0 55 0 55 -180 0 -180 0 0 -55z"/>
<path d="M1243 4390 c-18 -10 -40 -34 -49 -52 -24 -45 -24 -161 0 -206 33 -63
113 -90 175 -57 30 15 54 63 65 130 9 52 20 69 40 62 22 -9 21 -63 -3 -83 -17
-15 -18 -19 -3 -65 9 -27 19 -49 23 -49 17 0 63 47 75 76 8 19 14 56 14 84 0
102 -48 160 -130 160 -57 0 -94 -31 -110 -91 -5 -22 -15 -57 -21 -80 -7 -29
-15 -39 -27 -37 -27 5 -29 75 -2 103 18 19 20 30 14 74 -4 28 -12 51 -18 51
-6 0 -25 -9 -43 -20z"/>
<path d="M5877 4259 c-23 -14 -42 -53 -57 -121 -14 -61 -33 -79 -50 -48 -11
20 -5 46 17 72 12 13 12 23 2 57 -14 48 -26 51 -63 13 -34 -36 -49 -92 -41
-145 11 -62 30 -92 71 -112 31 -15 43 -15 76 -6 46 14 70 48 87 127 13 56 35
79 52 53 15 -25 10 -59 -14 -83 -19 -19 -21 -28 -15 -66 4 -23 10 -45 13 -49
13 -13 61 27 83 69 37 74 28 162 -23 216 -27 29 -39 34 -76 34 -24 0 -52 -5
-62 -11z"/>
<path d="M1480 3820 l0 -40 -150 0 -150 0 0 -60 0 -60 150 0 150 0 0 -40 0
-40 50 0 50 0 0 140 0 140 -50 0 -50 0 0 -40z"/>
<path d="M5690 3770 l0 -40 97 0 97 0 -97 -61 -97 -61 0 -54 0 -54 180 0 180
0 0 46 0 45 -110 -3 c-61 -2 -110 -3 -110 -2 0 0 50 32 110 69 l110 69 0 43 0
43 -180 0 -180 0 0 -40z"/>
<path d="M1180 3300 l0 -60 200 0 200 0 0 60 0 60 -200 0 -200 0 0 -60z"/>
<path d="M5853 3306 l-163 -51 0 -61 0 -60 169 -52 c93 -29 174 -52 180 -52 6
0 11 19 11 44 0 42 -1 44 -36 50 l-35 7 3 52 c3 48 5 52 36 61 31 9 32 11 32
62 0 45 -3 54 -17 53 -10 -1 -91 -24 -180 -53z m47 -121 c0 -29 -1 -29 -55
-13 l-40 11 40 13 c55 17 55 17 55 -11z"/>
<path d="M1480 2990 l0 -40 -150 0 -150 0 0 -60 0 -60 150 0 150 0 0 -40 0
-40 50 0 50 0 0 140 0 140 -50 0 -50 0 0 -40z"/>
<path d="M5748 2884 c-48 -25 -58 -60 -58 -194 l0 -120 180 0 180 0 0 55 0 54
-67 3 c-53 2 -68 6 -71 19 -2 12 16 24 67 44 l71 28 0 62 0 63 -76 -31 -75
-32 -17 22 c-18 23 -61 43 -90 43 -9 -1 -29 -7 -44 -16z m82 -124 c6 -12 10
-33 8 -48 -3 -24 -7 -27 -38 -27 -31 0 -35 3 -38 27 -4 36 14 68 38 68 11 0
24 -9 30 -20z"/>
<path d="M1248 2529 c-15 -6 -37 -26 -49 -46 -30 -48 -32 -163 -4 -210 32 -54
64 -63 234 -63 l151 0 0 50 0 50 -143 0 c-98 0 -147 4 -155 12 -20 20 -15 76
7 88 11 5 81 10 155 10 l136 0 0 60 0 60 -152 -1 c-84 0 -165 -5 -180 -10z"/>
<path d="M5690 2310 l0 -130 45 0 45 0 0 40 0 40 135 0 135 0 0 50 0 50 -135
0 -135 0 0 40 0 40 -45 0 -45 0 0 -130z"/>
<path d="M1480 1960 l0 -40 -150 0 -150 0 0 -60 0 -60 150 0 150 0 0 -40 0
-40 50 0 50 0 0 140 0 140 -50 0 -50 0 0 -40z"/>
<path d="M5968 1768 l-3 -73 -137 -3 -138 -3 0 -54 0 -55 180 0 180 0 0 130 0
130 -40 0 -39 0 -3 -72z"/>
<path d="M1272 1499 c-52 -26 -78 -62 -93 -125 -29 -129 58 -227 201 -228 122
0 199 70 200 181 0 60 -12 98 -43 132 -56 61 -183 80 -265 40z m183 -123 c29
-12 35 -20 35 -45 0 -21 -7 -34 -22 -43 -29 -15 -146 -15 -175 0 -44 24 -38
72 12 92 33 14 113 11 150 -4z"/>
<path d="M5690 1300 l0 -140 180 0 180 0 0 140 0 140 -40 0 -39 0 -3 -82 c-3
-82 -3 -83 -30 -86 l-28 -3 0 65 0 66 -40 0 -39 0 -3 -62 c-3 -60 -4 -63 -30
-66 l-28 -3 0 85 0 86 -40 0 -40 0 0 -140z"/>
<path d="M5690 981 c0 -28 59 -61 109 -61 l41 0 0 40 0 40 -40 0 c-29 0 -40
-4 -40 -15 0 -19 -4 -19 -40 0 -28 15 -30 14 -30 -4z"/>
<path d="M1951 709 c-26 -211 -26 -209 36 -209 38 0 39 4 49 118 4 46 10 80
14 75 4 -4 21 -48 39 -98 17 -49 35 -95 39 -102 11 -18 96 -21 100 -3 4 24 40
375 39 377 -1 0 -22 3 -47 5 l-45 3 -10 -92 c-6 -51 -13 -94 -16 -97 -2 -2
-21 42 -42 99 -36 95 -40 103 -69 109 -66 13 -62 23 -87 -185z"/>
<path d="M5202 881 c-11 -7 -10 -41 8 -197 12 -104 23 -190 25 -192 4 -5 143
11 155 18 8 5 10 21 5 50 -7 41 -8 42 -41 38 -40 -5 -38 -11 -54 137 -17 156
-17 155 -53 155 -18 0 -38 -4 -45 -9z"/>
<path d="M5690 871 c0 -27 62 -61 111 -61 39 0 39 0 39 40 l0 40 -40 0 c-29 0
-40 -4 -40 -15 0 -19 -9 -19 -34 0 -26 20 -36 19 -36 -4z"/>
<path d="M4802 841 c-12 -7 -82 -342 -82 -389 0 -9 12 -12 43 -10 38 3 43 6
51 35 10 32 28 43 78 43 20 0 28 -7 37 -30 9 -27 14 -30 51 -30 23 0 43 5 45
13 3 6 -26 93 -63 192 l-68 180 -39 3 c-22 1 -46 -2 -53 -7z m82 -225 c6 -23
3 -26 -22 -26 -31 0 -31 3 -15 100 l5 35 13 -42 c7 -23 15 -53 19 -67z"/>
<path d="M2556 798 c-76 -203 -123 -338 -118 -343 3 -3 24 -5 48 -5 38 0 43 3
53 30 10 31 18 34 70 24 24 -5 33 -13 39 -38 8 -29 12 -31 56 -34 44 -3 48 -1
44 16 -3 11 -20 99 -39 197 -36 193 -37 195 -109 195 -24 0 -31 -6 -44 -42z
m67 -165 c6 -53 6 -53 -22 -53 l-29 0 16 60 c9 33 19 56 23 52 3 -4 9 -31 12
-59z"/>
<path d="M3045 806 c-43 -19 -92 -78 -106 -128 -14 -53 -7 -144 15 -186 23
-45 76 -81 129 -88 59 -8 77 5 77 57 0 38 -1 39 -34 39 -48 0 -65 8 -81 41
-30 56 -11 145 36 169 11 6 35 10 52 8 31 -3 32 -2 35 43 3 41 0 47 -20 53
-35 9 -70 7 -103 -8z"/>
<path d="M4398 813 c-2 -5 -2 -52 2 -106 6 -112 6 -112 -67 21 l-45 83 -47 -3
-46 -3 3 -115 c1 -63 5 -152 8 -197 l6 -83 45 0 44 0 -3 105 c-2 58 -2 105 -2
105 1 0 28 -45 59 -100 l57 -100 50 0 51 0 -6 93 c-4 50 -10 140 -13 200 l-7
107 -43 0 c-23 0 -44 -3 -46 -7z"/>
<path d="M3773 794 c-18 -9 -43 -33 -55 -53 -20 -31 -23 -50 -23 -136 0 -118
19 -169 76 -197 113 -58 210 26 211 181 1 112 -31 178 -99 207 -42 18 -70 17
-110 -2z m97 -110 c17 -43 12 -165 -7 -186 -41 -46 -73 -2 -73 100 0 40 5 82
10 93 16 29 58 25 70 -7z"/>
<path d="M3376 754 c-3 -26 -6 -116 -6 -200 l0 -154 44 0 c31 0 46 5 50 16 3
9 6 99 6 200 l0 184 -44 0 -43 0 -7 -46z"/>
<path d="M3443 5745 c-486 -88 -843 -514 -843 -1005 0 -560 460 -1020 1020
-1020 694 0 1190 691 966 1347 -161 473 -656 767 -1143 678z m417 -45 c47 -12
130 -43 185 -70 270 -130 455 -356 537 -658 30 -111 30 -353 0 -464 -55 -200
-123 -319 -267 -463 -144 -144 -263 -212 -463 -267 -111 -30 -353 -30 -464 0
-232 63 -427 193 -563 375 -64 84 -139 243 -166 352 -33 129 -33 342 0 470 25
99 78 220 134 308 43 67 158 190 230 245 114 89 304 169 452 192 93 14 287 4
385 -20z"/>
<path d="M3821 5422 c-46 -31 -51 -37 -37 -47 9 -7 16 -16 16 -20 0 -17 -111
-235 -120 -235 -6 0 -18 4 -28 9 -129 69 -172 81 -172 50 0 -10 -67 -155 -141
-306 -30 -61 -31 -61 -57 -48 -117 58 -153 75 -161 75 -4 0 -16 -19 -25 -42
-10 -24 -30 -72 -46 -108 -55 -129 -70 -172 -54 -160 7 7 14 17 14 22 0 8 115
224 126 237 2 2 21 -6 43 -17 22 -12 48 -25 58 -30 10 -5 34 -16 52 -26 34
-17 35 -17 53 6 10 13 18 27 18 32 0 17 154 326 163 326 10 0 158 -79 171 -91
10 -9 58 76 126 220 25 52 34 62 50 58 18 -5 20 0 20 51 0 82 -6 86 -69 44z"/>
<path d="M3880 4776 l0 -374 58 18 57 18 3 356 2 356 -60 0 -60 0 0 -374z"/>
<path d="M3670 4635 c0 -184 2 -335 5 -335 11 0 70 32 88 48 15 14 17 42 17
319 l0 303 -55 0 -55 0 0 -335z"/>
<path d="M3450 4575 l0 -215 47 -30 c26 -17 51 -30 55 -30 4 0 8 110 8 245 l0
245 -55 0 -55 0 0 -215z"/>
<path d="M3240 4522 l0 -88 43 -12 c23 -7 48 -15 55 -18 9 -4 12 19 12 100 l0
106 -55 0 -55 0 0 -88z"/>
<path d="M2534 3206 c-147 -34 -268 -100 -374 -206 -155 -156 -227 -342 -217
-560 16 -322 221 -583 537 -682 108 -33 302 -33 410 0 253 80 432 259 512 512
19 62 23 97 23 205 0 108 -4 143 -23 205 -79 251 -258 432 -507 510 -90 28
-272 36 -361 16z m351 -46 c125 -39 202 -86 300 -185 150 -149 210 -292 210
-500 0 -208 -60 -351 -210 -500 -149 -150 -292 -210 -500 -210 -208 0 -351 60
-500 210 -150 149 -210 292 -210 500 0 208 60 351 210 500 115 116 230 177
383 205 76 14 238 4 317 -20z"/>
<path d="M2762 3011 c-45 -16 -88 -34 -96 -40 -10 -8 -24 -6 -58 9 -125 55
-268 66 -353 26 -100 -46 -141 -126 -133 -264 4 -72 12 -104 43 -177 20 -50
37 -97 37 -105 -1 -8 -10 -49 -22 -90 -31 -111 -25 -227 17 -301 21 -37 45
-63 78 -84 45 -28 55 -30 144 -30 111 0 171 16 164 44 -5 20 -13 20 -106 0
-150 -31 -261 51 -273 204 -5 71 18 186 31 152 45 -121 129 -221 223 -269 59
-30 63 -31 56 -12 -3 8 -17 17 -31 21 -30 7 -73 48 -73 70 0 21 33 19 54 -4
10 -11 25 -17 37 -14 14 4 19 0 20 -13 0 -12 3 -14 6 -6 10 26 -7 62 -29 62
-12 0 -19 2 -16 5 3 3 -19 30 -50 59 -67 64 -66 86 2 86 50 0 56 -8 56 -76 0
-25 5 -44 11 -44 7 0 9 23 7 63 l-3 62 33 3 c17 2 32 8 32 14 0 6 -15 8 -35 6
l-35 -4 0 58 c0 56 1 58 28 59 l27 1 -26 10 c-14 6 -31 23 -37 37 l-10 26 -1
-26 c-1 -15 -8 -30 -17 -33 -22 -9 -92 -7 -97 2 -3 4 -2 31 0 60 l6 52 46 0
c33 0 42 3 31 10 -8 5 -27 10 -42 10 -19 0 -28 5 -28 16 0 22 68 104 86 104 8
0 14 5 14 11 0 22 141 139 167 139 7 0 14 -10 14 -22 1 -17 2 -19 6 -5 2 9 8
17 12 17 14 0 102 -67 117 -89 9 -12 19 -19 24 -16 5 3 11 1 15 -5 3 -5 1 -10
-5 -10 -6 0 -8 -4 -5 -10 3 -5 14 -10 24 -10 18 0 101 -79 101 -97 0 -12 -32
-23 -72 -23 -16 0 -28 -5 -28 -11 0 -8 17 -9 55 -4 l55 6 0 -54 0 -54 -37 -7
c-76 -12 -83 -10 -83 30 0 21 -4 33 -10 29 -5 -3 -10 -19 -10 -36 0 -24 -4
-29 -24 -29 -14 0 -28 -5 -32 -12 -5 -8 2 -9 24 -5 l32 7 0 -60 0 -60 -35 0
c-19 0 -35 -4 -35 -10 0 -5 16 -10 36 -10 l35 0 -7 -69 c-6 -62 -4 -72 16 -99
23 -31 23 -31 47 -12 25 19 63 16 63 -6 0 -7 -25 -28 -55 -46 -50 -30 -67 -48
-47 -48 21 0 131 81 165 121 42 48 83 128 96 186 l8 38 12 -30 c20 -48 41
-137 41 -170 0 -17 -7 -54 -15 -82 -37 -123 -178 -173 -335 -118 l-41 15 3
-27 c3 -23 10 -29 53 -40 30 -8 83 -12 130 -10 113 5 174 39 218 122 19 34 22
56 22 145 0 98 -3 111 -37 194 l-37 90 27 75 c21 63 26 94 27 181 0 99 -2 108
-31 160 -22 38 -46 64 -79 85 -42 26 -59 30 -134 33 -74 2 -98 -1 -169 -27z
m231 -23 c124 -37 176 -188 123 -360 -11 -36 -14 -40 -21 -23 -66 178 -181
277 -370 320 l-30 7 37 19 c86 44 189 59 261 37z m-528 -8 c62 -17 125 -41
125 -49 0 -4 -26 -15 -57 -25 -141 -44 -254 -158 -294 -296 -7 -25 -15 -49
-19 -53 -4 -4 -18 25 -31 65 -34 102 -33 207 1 266 48 85 158 122 275 92z m0
-155 c-54 -48 -68 -54 -58 -27 10 28 24 42 62 62 54 27 52 14 -4 -35z m413 25
c35 -21 52 -37 52 -50 0 -29 -15 -25 -76 22 -82 65 -68 80 24 28z m-502 -91
c10 -16 -65 -119 -87 -119 -11 0 -19 3 -19 6 0 11 42 77 63 102 23 25 33 27
43 11z m642 -43 c35 -53 39 -66 18 -66 -21 0 -76 71 -76 98 0 34 20 23 58 -32z
m57 -121 l7 -30 -21 29 c-11 17 -17 34 -14 39 8 13 21 -4 28 -38z m-791 27 c2
-4 -7 -25 -21 -47 -13 -22 -22 -31 -19 -20 3 11 8 32 12 48 6 26 18 35 28 19z
m761 -84 l16 -28 -40 0 -41 0 0 58 0 57 24 -30 c14 -16 32 -42 41 -57z m-699
-34 c-3 -8 -20 -14 -41 -14 -40 0 -40 2 14 85 l26 40 3 -49 c2 -27 1 -55 -2
-62z m616 -79 c-2 -33 -5 -61 -7 -63 -1 -1 -28 0 -59 4 l-56 7 0 52 c0 28 3
55 7 59 4 4 32 6 63 4 l55 -3 -3 -60z m79 28 c-11 -21 -29 -51 -40 -68 l-21
-30 0 68 0 67 40 0 40 0 -19 -37z m-561 -33 c0 -56 -1 -60 -24 -60 -13 0 -37
-3 -53 -6 l-30 -6 -5 59 c-3 32 -4 61 -1 66 2 4 29 7 59 7 l54 0 0 -60z m-130
-12 l-1 -63 -29 35 c-16 19 -36 47 -45 63 l-16 27 45 0 46 0 0 -62z m734 -17
c-4 -18 -13 -35 -21 -38 -25 -10 -26 5 -3 42 26 42 33 41 24 -4z m-806 -50
c-12 -4 -28 17 -28 39 0 10 7 7 20 -10 11 -15 15 -26 8 -29z m671 0 c12 -7 4
-22 -38 -70 -65 -75 -81 -78 -81 -13 0 83 6 92 59 92 25 0 52 -4 60 -9z m111
-16 c0 -26 -77 -138 -89 -130 -13 7 4 79 25 108 16 22 64 38 64 22z m-713 -53
c35 -46 43 -82 19 -82 -16 0 -54 46 -80 98 -17 33 -17 34 5 30 13 -2 38 -22
56 -46z m603 -52 c0 -14 -7 -20 -22 -20 -20 0 -21 1 -3 20 10 11 20 20 22 20
1 0 3 -9 3 -20z"/>
<path d="M2625 2783 c-67 -18 -109 -94 -85 -153 13 -31 54 -70 73 -70 5 0 -6
16 -26 35 -50 49 -51 93 -3 141 28 28 42 34 76 34 57 0 110 -50 110 -103 0
-44 -41 -97 -76 -97 -27 0 -33 24 -9 34 8 3 15 17 15 31 0 24 -3 26 -37 23
-41 -3 -54 -25 -31 -50 7 -7 18 -23 24 -33 15 -27 43 -29 81 -6 64 40 66 146
3 193 -27 20 -82 30 -115 21z"/>
<path d="M2671 2684 c0 -11 3 -14 6 -6 3 7 2 16 -1 19 -3 4 -6 -2 -5 -13z"/>
<path d="M2648 2203 c12 -2 30 -2 40 0 9 3 -1 5 -23 4 -22 0 -30 -2 -17 -4z"/>
<path d="M2805 2145 c0 -14 3 -25 8 -25 4 0 7 7 7 15 0 8 0 18 1 22 0 4 -3 9
-8 10 -4 2 -8 -8 -8 -22z"/>
<path d="M2545 2131 c-9 -16 15 -55 27 -43 12 12 7 44 -9 49 -6 2 -14 -1 -18
-6z"/>
<path d="M2743 2119 l-33 -21 18 -30 17 -30 5 44 c3 27 8 38 13 31 12 -20 27
-15 27 7 0 25 -7 25 -47 -1z"/>
<path d="M2662 2095 c-2 -54 11 -74 26 -40 15 33 15 36 -2 29 -10 -4 -16 3
-19 23 -3 22 -4 19 -5 -12z"/>
<path d="M2600 2070 c0 -47 14 -52 28 -11 7 20 7 32 -1 40 -20 20 -27 12 -27
-29z"/>
<path d="M2770 2060 c0 -5 5 -10 11 -10 5 0 7 5 4 10 -3 6 -8 10 -11 10 -2 0
-4 -4 -4 -10z"/>
<path d="M2707 2034 c-13 -14 -7 -32 13 -37 23 -6 25 2 7 27 -7 9 -16 14 -20
10z"/>
<path d="M2637 2023 c-4 -3 -7 -11 -7 -17 0 -6 5 -5 12 2 6 6 9 14 7 17 -3 3
-9 2 -12 -2z"/>
<path d="M4110 2620 l0 -290 178 0 179 0 11 -25 c16 -35 15 -74 -2 -107 l-15
-28 119 0 118 0 -15 40 c-13 33 -14 47 -4 80 l12 40 182 2 182 3 3 288 2 287
-475 0 -475 0 0 -290z m935 10 l0 -265 -462 -3 -463 -2 0 270 0 270 463 -2
462 -3 0 -265z"/>
<path d="M4130 2055 l0 -95 345 0 345 0 0 95 0 95 -345 0 -345 0 0 -95z"/>
<path d="M4912 2134 c-19 -13 -22 -24 -22 -78 0 -70 17 -96 63 -96 37 0 57 34
57 96 0 45 -4 56 -26 73 -32 25 -43 26 -72 5z"/>
</g>
</svg>
